<mxfile host="app.diagrams.net" modified="2024-01-21T07:36:42.352Z" agent="Mozilla/5.0 (Windows NT 10.0; Win64; x64) AppleWebKit/537.36 (KHTML, like Gecko) Chrome/120.0.0.0 Safari/537.36" etag="KE9n1io8xJ5HSrrZ1nHu" version="22.1.21" type="google">
  <diagram name="Page-1" id="x-Z308lOh-9QeHA2OBDY">
    <mxGraphModel grid="0" page="0" gridSize="10" guides="1" tooltips="1" connect="1" arrows="1" fold="1" pageScale="1" pageWidth="3300" pageHeight="2339" math="0" shadow="0">
      <root>
        <mxCell id="0" />
        <mxCell id="1" parent="0" />
        <mxCell id="0KG-WTzaAyknlwjIiEGz-12" style="edgeStyle=orthogonalEdgeStyle;rounded=0;orthogonalLoop=1;jettySize=auto;html=1;exitX=0.25;exitY=1;exitDx=0;exitDy=0;entryX=0;entryY=0.8;entryDx=0;entryDy=0;fontSize=12;startSize=8;endSize=8;endArrow=none;endFill=0;" edge="1" parent="1" source="0KG-WTzaAyknlwjIiEGz-2" target="0KG-WTzaAyknlwjIiEGz-11">
          <mxGeometry relative="1" as="geometry" />
        </mxCell>
        <mxCell id="0KG-WTzaAyknlwjIiEGz-2" value="CONTROLLER" style="rounded=0;whiteSpace=wrap;html=1;fontSize=16;" vertex="1" parent="1">
          <mxGeometry x="-93" y="40" width="155" height="123" as="geometry" />
        </mxCell>
        <mxCell id="0KG-WTzaAyknlwjIiEGz-5" value="E-Lock" style="rounded=0;whiteSpace=wrap;html=1;fontSize=16;" vertex="1" parent="1">
          <mxGeometry x="-75.5" y="40" width="120" height="25" as="geometry" />
        </mxCell>
        <mxCell id="0KG-WTzaAyknlwjIiEGz-7" value="" style="pointerEvents=1;verticalLabelPosition=bottom;shadow=0;dashed=0;align=center;html=1;verticalAlign=top;shape=mxgraph.electrical.inductors.inductor_5;fontSize=16;rotation=-90;" vertex="1" parent="1">
          <mxGeometry x="154" y="99.81" width="67" height="11.75" as="geometry" />
        </mxCell>
        <mxCell id="0KG-WTzaAyknlwjIiEGz-8" value="B+" style="whiteSpace=wrap;html=1;aspect=fixed;fontSize=16;" vertex="1" parent="1">
          <mxGeometry x="-65" y="135" width="28" height="28" as="geometry" />
        </mxCell>
        <mxCell id="0KG-WTzaAyknlwjIiEGz-9" value="B-" style="whiteSpace=wrap;html=1;aspect=fixed;fontSize=16;" vertex="1" parent="1">
          <mxGeometry x="4" y="135" width="28" height="28" as="geometry" />
        </mxCell>
        <mxCell id="0KG-WTzaAyknlwjIiEGz-13" style="edgeStyle=orthogonalEdgeStyle;shape=connector;rounded=0;orthogonalLoop=1;jettySize=auto;html=1;exitX=1;exitY=0.8;exitDx=0;exitDy=0;entryX=0.5;entryY=0;entryDx=0;entryDy=0;labelBackgroundColor=default;strokeColor=default;align=center;verticalAlign=middle;fontFamily=Helvetica;fontSize=12;fontColor=default;endArrow=none;endFill=0;startSize=8;endSize=8;" edge="1" parent="1" source="0KG-WTzaAyknlwjIiEGz-11" target="0KG-WTzaAyknlwjIiEGz-5">
          <mxGeometry relative="1" as="geometry" />
        </mxCell>
        <mxCell id="0KG-WTzaAyknlwjIiEGz-11" value="" style="html=1;shape=mxgraph.electrical.electro-mechanical.singleSwitch;aspect=fixed;elSwitchState=off;rotation=-90;movable=1;resizable=1;rotatable=1;deletable=1;editable=1;locked=0;connectable=1;container=0;" vertex="1" parent="1">
          <mxGeometry x="130" y="98.62" width="53" height="14.13" as="geometry" />
        </mxCell>
        <mxCell id="0KG-WTzaAyknlwjIiEGz-14" value="" style="rounded=0;whiteSpace=wrap;html=1;movable=1;resizable=1;rotatable=1;deletable=1;editable=1;locked=0;connectable=1;container=0;" vertex="1" parent="1">
          <mxGeometry x="276" y="174" width="120" height="60" as="geometry" />
        </mxCell>
        <mxCell id="0KG-WTzaAyknlwjIiEGz-15" value="" style="whiteSpace=wrap;html=1;aspect=fixed;movable=1;resizable=1;rotatable=1;deletable=1;editable=1;locked=0;connectable=1;container=0;" vertex="1" parent="1">
          <mxGeometry x="286" y="154" width="20" height="20" as="geometry" />
        </mxCell>
        <mxCell id="0KG-WTzaAyknlwjIiEGz-16" value="" style="whiteSpace=wrap;html=1;aspect=fixed;movable=1;resizable=1;rotatable=1;deletable=1;editable=1;locked=0;connectable=1;container=0;" vertex="1" parent="1">
          <mxGeometry x="366" y="154" width="20" height="20" as="geometry" />
        </mxCell>
        <mxCell id="0KG-WTzaAyknlwjIiEGz-17" value="12V 9Ah" style="rounded=0;whiteSpace=wrap;html=1;movable=1;resizable=1;rotatable=1;deletable=1;editable=1;locked=0;connectable=1;container=0;" vertex="1" parent="1">
          <mxGeometry x="276" y="164" width="120" height="10" as="geometry" />
        </mxCell>
        <mxCell id="0KG-WTzaAyknlwjIiEGz-18" value="-" style="rounded=0;whiteSpace=wrap;html=1;movable=1;resizable=1;rotatable=1;deletable=1;editable=1;locked=0;connectable=1;container=0;" vertex="1" parent="1">
          <mxGeometry x="291" y="144" width="10" height="10" as="geometry" />
        </mxCell>
        <mxCell id="0KG-WTzaAyknlwjIiEGz-19" value="+" style="rounded=0;whiteSpace=wrap;html=1;movable=1;resizable=1;rotatable=1;deletable=1;editable=1;locked=0;connectable=1;container=0;" vertex="1" parent="1">
          <mxGeometry x="371" y="144" width="10" height="10" as="geometry" />
        </mxCell>
        <mxCell id="0KG-WTzaAyknlwjIiEGz-20" value="" style="shape=image;html=1;verticalAlign=top;verticalLabelPosition=bottom;labelBackgroundColor=#ffffff;imageAspect=0;aspect=fixed;image=https://cdn3.iconfinder.com/data/icons/energy-and-power-glyph-24-px/24/Bolt_flashlight_lightning_power_thunder-128.png;movable=1;resizable=1;rotatable=1;deletable=1;editable=1;locked=0;connectable=1;container=0;" vertex="1" parent="1">
          <mxGeometry x="316" y="184" width="40" height="40" as="geometry" />
        </mxCell>
        <mxCell id="0KG-WTzaAyknlwjIiEGz-21" style="edgeStyle=orthogonalEdgeStyle;shape=connector;rounded=0;orthogonalLoop=1;jettySize=auto;html=1;entryX=0;entryY=0.645;entryDx=0;entryDy=0;entryPerimeter=0;labelBackgroundColor=default;strokeColor=default;align=center;verticalAlign=middle;fontFamily=Helvetica;fontSize=12;fontColor=default;endArrow=none;endFill=0;startSize=8;endSize=8;" edge="1" parent="1" target="0KG-WTzaAyknlwjIiEGz-7">
          <mxGeometry relative="1" as="geometry">
            <mxPoint x="290" y="147" as="sourcePoint" />
            <Array as="points">
              <mxPoint x="290" y="148" />
              <mxPoint x="189" y="148" />
            </Array>
          </mxGeometry>
        </mxCell>
        <mxCell id="0KG-WTzaAyknlwjIiEGz-22" style="edgeStyle=orthogonalEdgeStyle;shape=connector;rounded=0;orthogonalLoop=1;jettySize=auto;html=1;exitX=1;exitY=0.25;exitDx=0;exitDy=0;entryX=1;entryY=0.645;entryDx=0;entryDy=0;entryPerimeter=0;labelBackgroundColor=default;strokeColor=default;align=center;verticalAlign=middle;fontFamily=Helvetica;fontSize=12;fontColor=default;endArrow=none;endFill=0;startSize=8;endSize=8;" edge="1" parent="1" source="0KG-WTzaAyknlwjIiEGz-19" target="0KG-WTzaAyknlwjIiEGz-7">
          <mxGeometry relative="1" as="geometry" />
        </mxCell>
        <mxCell id="0KG-WTzaAyknlwjIiEGz-23" value="" style="rounded=0;whiteSpace=wrap;html=1;fontFamily=Helvetica;fontSize=12;fontColor=default;fillColor=none;dashed=1;" vertex="1" parent="1">
          <mxGeometry x="144" y="78" width="58" height="57" as="geometry" />
        </mxCell>
        <mxCell id="0KG-WTzaAyknlwjIiEGz-24" value="E - Lock Relay" style="text;html=1;strokeColor=none;fillColor=none;align=center;verticalAlign=middle;whiteSpace=wrap;rounded=0;fontSize=12;fontFamily=Helvetica;fontColor=default;" vertex="1" parent="1">
          <mxGeometry x="207" y="90.68" width="60" height="30" as="geometry" />
        </mxCell>
        <mxCell id="0KG-WTzaAyknlwjIiEGz-25" value="" style="rounded=0;whiteSpace=wrap;html=1;fontFamily=Helvetica;fontSize=12;fontColor=default;fillColor=none;" vertex="1" parent="1">
          <mxGeometry x="-148" y="-59" width="613" height="368" as="geometry" />
        </mxCell>
      </root>
    </mxGraphModel>
  </diagram>
</mxfile>
